<svg width="172" height="172" viewBox="0 0 172 172" fill="none" xmlns="http://www.w3.org/2000/svg">
<path d="M94.5119 67.7177C91.9024 67.7177 89.4497 68.7337 87.6038 70.5796L56.8295 101.354C54.9845 103.2 53.9684 105.652 53.9684 108.262C53.9684 110.871 54.9845 113.324 56.8295 115.168C58.6746 117.014 61.1281 118.03 63.7368 118.03C66.3455 118.03 68.799 117.014 70.6448 115.169L101.42 84.3941C105.228 80.5856 105.228 74.3881 101.419 70.5788C99.5741 68.7337 97.1214 67.7177 94.5119 67.7177ZM69.5684 107.05L67.1255 109.493C66.4884 110.131 65.6512 110.45 64.8157 110.45C63.9802 110.45 63.143 110.131 62.5059 109.493C61.2293 108.217 61.2293 106.148 62.5059 104.873L64.9488 102.43C66.2238 101.154 68.2942 101.154 69.5684 102.43C70.8441 103.706 70.8441 105.775 69.5684 107.05ZM82.4812 94.1371L80.0383 96.58C79.4012 97.2178 78.564 97.5372 77.7285 97.5372C76.893 97.5372 76.0558 97.2178 75.4187 96.58C74.1422 95.3042 74.1422 93.2354 75.4187 91.9604L77.8616 89.5175C79.1366 88.241 81.207 88.241 82.4812 89.5175C83.7577 90.7925 83.7577 92.8613 82.4812 94.1371ZM95.7435 80.8747L93.3006 83.3176C92.6636 83.9555 91.8264 84.2748 90.9909 84.2748C90.1553 84.2748 89.3182 83.9555 88.6811 83.3176C87.4045 82.0418 87.4045 79.973 88.6811 78.6981L91.124 76.2552C92.3989 74.9786 94.4694 74.9786 95.7435 76.2552C97.0193 77.5301 97.0193 79.5989 95.7435 80.8747ZM171.04 47.0262C169.766 45.7496 167.695 45.7496 166.421 47.0262L162.274 51.1728L157.68 46.5786L161.828 42.4311C163.104 41.1554 163.104 39.0865 161.828 37.8116C160.553 36.535 158.482 36.535 157.208 37.8116L153.061 41.9591L148.467 37.3648L152.614 33.2182C153.89 31.9424 153.89 29.8736 152.614 28.5987C151.339 27.3221 149.268 27.3221 147.994 28.5987L143.848 32.7453L139.253 28.1511L143.4 24.0045C144.677 22.7287 144.677 20.6599 143.4 19.3849C142.125 18.1083 140.055 18.1083 138.78 19.3849L134.634 23.5316L130.04 18.9373L134.186 14.7907C135.463 13.515 135.463 11.4461 134.186 10.1712C132.911 8.8946 130.841 8.8946 129.567 10.1712L125.42 14.3178L120.826 9.7236L124.973 5.57697C126.249 4.3012 126.249 2.23238 124.973 0.957434C123.698 -0.319145 121.627 -0.319145 120.353 0.957434L113.897 7.41384C113.847 7.46366 113.812 7.52083 113.767 7.5731C113.725 7.62047 113.675 7.65804 113.636 7.70787L73.2707 59.1663C68.6757 65.0232 63.6804 70.658 58.4238 75.9146L7.79763 126.542C-2.58489 136.925 -2.58489 153.819 7.79763 164.2C12.8272 169.23 19.5147 172 26.6278 172C33.7408 172 40.4276 169.23 45.4571 164.2L96.0833 113.574C101.345 108.313 106.98 103.317 112.832 98.728L164.291 58.3635C164.341 58.3243 164.378 58.2744 164.425 58.2328C164.476 58.187 164.534 58.1519 164.584 58.1029L171.04 51.6465C172.317 50.3708 172.317 48.3019 171.04 47.0262ZM106.039 89.0136L75.2644 119.789C72.1852 122.869 68.0917 124.564 63.7368 124.564C59.3819 124.564 55.2883 122.869 52.2092 119.789C49.13 116.71 47.4345 112.616 47.4345 108.262C47.4345 103.907 49.13 99.8127 52.21 96.7335L82.9843 65.9592C86.0642 62.8793 90.157 61.1837 94.5119 61.1837C98.866 61.1837 102.96 62.8793 106.039 65.9584C112.395 72.316 112.395 82.6585 106.039 89.0136Z" fill="#9E34A8" fill-opacity="0.05"/>
</svg>
