<svg width="189" height="210" viewBox="0 0 189 210" fill="none" xmlns="http://www.w3.org/2000/svg">
<path d="M130.717 123.725C126.219 106.752 126.015 93.6379 130.165 87.7355C134.955 80.9242 139.527 77.9228 143.945 75.0201C148.141 72.2726 152.479 69.4171 156.451 63.7674C165.537 50.8457 162.747 39.894 147.673 29.2948C132.598 18.6956 121.349 19.7759 112.263 32.6976C108.291 38.3472 107.078 43.3998 105.905 48.2732C104.669 53.4127 103.391 58.7313 98.6022 65.5426C94.4521 71.445 82.0429 75.6906 64.5483 77.2002C56.5065 77.9041 49.2638 82.0467 44.6699 88.5802L2.33532 148.789C1.11028 150.532 1.5301 152.94 3.27237 154.165C5.01464 155.39 7.42305 154.97 8.64808 153.228L41.937 105.884L48.2501 110.323L14.9612 157.667C13.7361 159.409 14.1559 161.818 15.8982 163.043C17.6405 164.268 20.0489 163.848 21.2739 162.106L54.5629 114.761L60.8753 119.2L27.5864 166.544C26.3614 168.286 26.7812 170.695 28.5234 171.92C30.2657 173.145 32.6738 172.725 33.8989 170.983L67.1878 123.638L73.5003 128.077L40.2113 175.421C38.9863 177.163 39.4061 179.572 41.1484 180.797C42.8907 182.022 45.2991 181.602 46.5241 179.86L79.8131 132.515L86.1255 136.954L52.8366 184.298C51.6116 186.04 52.0314 188.449 53.7736 189.674C55.5159 190.899 57.9243 190.479 59.1494 188.737L92.4383 141.393L98.7508 145.831L65.4618 193.175C64.2368 194.918 64.6566 197.326 66.3989 198.551C68.1412 199.776 70.5496 199.356 71.7746 197.614L105.064 150.27L111.376 154.708L78.0871 202.052C76.862 203.795 77.2819 206.203 79.0241 207.428C80.7664 208.653 83.1748 208.233 84.3998 206.491L126.73 146.288C131.324 139.754 132.776 131.531 130.717 123.725Z" fill="#34A853" fill-opacity="0.05"/>
</svg>
