<svg width="28" height="27" viewBox="0 0 28 27" fill="none" xmlns="http://www.w3.org/2000/svg">
<g clip-path="url(#clip0_1_110)">
<path d="M8.03559 12.7303C7.75201 12.7385 7.45071 12.7153 7.2935 12.6106C7.13623 12.5063 6.9467 12.1969 6.75564 11.9479C5.86149 10.784 4.27586 10.2973 2.83948 10.8564C1.09553 11.5349 0.232597 13.4993 0.911483 15.2428C1.59037 16.9868 3.55396 17.8501 5.29791 17.1712C6.1601 16.8354 6.80636 16.1852 7.15795 15.4026C7.2171 15.2704 7.24979 15.1962 7.35006 15.0978C7.45071 14.9993 7.65532 14.9368 7.81923 14.903C8.78175 14.7043 9.59033 14.6973 10.267 14.7998L10.386 14.478C10.4243 14.3711 10.6576 13.7149 11.0021 12.7495C10.2031 12.7575 9.05247 12.701 8.03559 12.7303ZM4.73295 15.7208C3.79062 16.0874 2.72893 15.6209 2.36189 14.6782C1.99527 13.7355 2.46184 12.6741 3.40412 12.3071C4.34682 11.9398 5.40815 12.4067 5.77556 13.349C6.14218 14.2917 5.6756 15.3534 4.73295 15.7208Z" fill="#181003"/>
<path d="M27.2409 8.92095C27.0418 8.40882 26.4298 8.3522 24.9132 8.74645C24.0918 8.95991 20.295 10.1017 16.9828 11.1046C16.6562 12.8034 16.3612 14.3279 16.1885 15.2185C19.5566 13.6013 24.7244 11.1123 25.6435 10.6241C27.0279 9.88859 27.4408 9.43303 27.2409 8.92095Z" fill="#181003"/>
<path d="M16.4948 20.7192C16.2273 20.555 15.9 20.3988 15.7794 20.2533C15.6593 20.1075 15.6049 19.8103 15.5836 19.5274C15.4786 18.1409 15.1869 16.5193 15.2232 15.8647C15.2232 15.8647 17.5524 3.87513 17.7864 2.32556C18.0204 0.775573 17.9003 0.173132 17.3706 0.0279913C16.8405 -0.116727 16.4304 0.341048 15.843 1.79398C15.256 3.24733 11.1602 14.7534 11.1602 14.7534C11.1602 14.7534 13.8581 15.8235 13.4449 19.969C13.4283 20.1351 13.3876 20.3452 13.3001 20.4554C13.2127 20.566 13.1425 20.606 13.0172 20.6788C12.2755 21.1094 11.6962 21.8202 11.4522 22.7129C10.9585 24.5178 12.0217 26.3811 13.8262 26.8749C15.6315 27.3683 17.4948 26.3051 17.9881 24.5002C18.3948 23.0134 17.7452 21.487 16.4948 20.7192ZM13.3368 14.7792C12.9951 14.6859 12.7938 14.3336 12.8875 13.9919C12.9808 13.6503 13.3331 13.4489 13.6748 13.5422C14.0165 13.6359 14.2174 13.9886 14.1241 14.3299C14.0308 14.6715 13.6781 14.8724 13.3368 14.7792ZM16.4866 24.0895C16.2199 25.0652 15.2126 25.6398 14.2368 25.373C13.2611 25.1063 12.6865 24.099 12.9532 23.1232C13.22 22.1475 14.2277 21.5729 15.2031 21.84C16.1788 22.1064 16.7534 23.1141 16.4866 24.0895Z" fill="#34A853"/>
</g>
<defs>
<clipPath id="clip0_1_110">
<rect width="26.9931" height="26.9931" fill="white" transform="translate(0.486328 0.00341797)"/>
</clipPath>
</defs>
</svg>
