<svg width="23" height="69" viewBox="0 0 23 69" fill="none" xmlns="http://www.w3.org/2000/svg">
<path d="M6.31725 46.8235C6.22834 47.2137 6.06774 47.7008 5.82713 47.9353C5.58735 48.1714 5.40837 48.2446 5.0895 48.38C3.20067 49.1817 1.61127 50.6954 0.764544 52.7413C-0.946926 56.8791 1.01873 61.6201 5.15595 63.333C6.57127 63.9179 8.0573 64.0736 9.46994 63.8577C11.0764 67.2279 12.9725 68.7024 12.9725 68.7024L15.1085 66.9776C13.4935 65.6612 12.5354 63.2455 12.377 62.8234C13.8423 61.9599 15.047 60.6328 15.7485 58.9413C17.1579 55.5338 16.072 51.7156 13.3331 49.5173C12.7468 49.0476 12.0179 48.5791 11.7746 48.1972C11.5331 47.8145 11.4932 47.0934 11.5269 46.4153C11.6929 43.0924 11.4858 39.1545 11.7682 37.6119C11.7682 37.6119 20.8885 9.84404 21.9071 6.23396C22.9261 2.62474 22.8221 1.15949 21.6066 0.656416C20.3927 0.152669 19.282 1.11669 17.4527 4.39066C15.6241 7.66625 2.45417 33.7575 2.45417 33.7575C2.45417 33.7575 8.5389 37.1046 6.31725 46.8235ZM12.3052 57.5177C11.3799 59.7538 8.81798 60.816 6.58008 59.8914C4.34366 58.9652 3.28076 56.4016 4.2064 54.1663C5.13314 51.9287 7.69514 50.8665 9.93121 51.7918C12.1689 52.7165 13.2318 55.2801 12.3052 57.5177ZM6.78351 32.4659C7.10746 31.6831 8.00562 31.3107 8.78671 31.6354C9.56954 31.9593 9.94125 32.8559 9.6173 33.6387C9.29509 34.4208 8.39692 34.7932 7.6141 34.4693C6.83128 34.1453 6.45956 33.2488 6.78351 32.4659Z" fill="#34A853"/>
</svg>
